<?xml version="1.0" encoding="UTF-8"?>
<svg version="1.1" xmlns="http://www.w3.org/2000/svg" width="425" height="119">
<path d="M0 0 C140.25 0 280.5 0 425 0 C425 39.27 425 78.54 425 119 C284.75 119 144.5 119 0 119 C0 79.73 0 40.46 0 0 Z " fill="#E3010B" transform="translate(0,0)"/>
<path d="M0 0 C19.8 0 39.6 0 60 0 C60 18.48 60 36.96 60 56 C40.2 56 20.4 56 0 56 C0 37.52 0 19.04 0 0 Z " fill="#FCEEEE" transform="translate(203,31)"/>
<path d="M0 0 C7.08503944 7.08503944 13.64860094 14.44790238 19.84765625 22.31640625 C22.27718861 25.3456054 24.78927989 28.29909298 27.3125 31.25 C35.23706971 40.54535844 42.73472777 50.18206456 50 60 C49.18917969 60.93199219 48.37835938 61.86398438 47.54296875 62.82421875 C40.75154172 70.63983179 34.00966562 78.49327385 27.33837891 86.41162109 C21.08247556 93.83608427 14.80688618 101.24378492 8.5 108.625 C7.9954126 109.21724365 7.4908252 109.8094873 6.97094727 110.41967773 C4.72216537 113.04675226 2.44756114 115.55243886 0 118 C0 79.06 0 40.12 0 0 Z " fill="#FEFDFD" transform="translate(0,1)"/>
<path d="M0 0 C10.56 0 21.12 0 32 0 C32 13.2 32 26.4 32 40 C18.14 40 4.28 40 -10 40 C-10 27.46 -10 14.92 -10 2 C-5.49210724 5.86390808 -1.20232971 9.66073352 2.9375 13.875 C3.67709961 14.62136719 3.67709961 14.62136719 4.43164062 15.3828125 C5.62345992 16.58620285 6.81208678 17.79275365 8 19 C6.27845212 22.76488042 4.00765886 25.15063897 1 28 C1.71563266 30.0162233 1.71563266 30.0162233 3 32 C4.87657091 32.88847994 4.87657091 32.88847994 7 33 C9.29016466 31.08065216 11.23281698 29.23652142 13.25 27.0625 C13.80429688 26.48564453 14.35859375 25.90878906 14.9296875 25.31445312 C16.29794145 23.88722271 17.6505038 22.44497942 19 21 C14.45563326 15.41692086 9.45668116 10.38820035 4.31958008 5.35668945 C2.86259765 3.92163874 1.42899728 2.46292006 0 1 C0 0.67 0 0.34 0 0 Z " fill="#E20009" transform="translate(222,39)"/>
<path d="M0 0 C2.31 0 4.62 0 7 0 C7 18.48 7 36.96 7 56 C4.69 56 2.38 56 0 56 C-0.33 44.12 -0.66 32.24 -1 20 C-2.98 25.28 -4.96 30.56 -7 36 C-7.66 36 -8.32 36 -9 36 C-10.98 30.72 -12.96 25.44 -15 20 C-15.33 31.88 -15.66 43.76 -16 56 C-17.98 56 -19.96 56 -22 56 C-22 37.85 -22 19.7 -22 1 C-19.69 1 -17.38 1 -15 1 C-13.9936345 3.43504509 -12.99473587 5.87270864 -12 8.3125 C-11.71382813 9.00279297 -11.42765625 9.69308594 -11.1328125 10.40429688 C-9.91089256 13.41545674 -9 15.71886984 -9 19 C-8.34 19 -7.68 19 -7 19 C-6.74476563 18.07380859 -6.74476563 18.07380859 -6.484375 17.12890625 C-4.77814576 11.1661796 -2.66418883 5.59885369 0 0 Z " fill="#FDF4F4" transform="translate(344,31)"/>
<path d="M0 0 C9.57 0 19.14 0 29 0 C29 3.63 29 7.26 29 11 C23.06 11 17.12 11 11 11 C11 15.62 11 20.24 11 25 C15.62 25 20.24 25 25 25 C25 27.97 25 30.94 25 34 C20.71 34 16.42 34 12 34 C12 41.26 12 48.52 12 56 C8.04 56 4.08 56 0 56 C0 37.52 0 19.04 0 0 Z " fill="#FDF0F0" transform="translate(165,31)"/>
<path d="M0 0 C9.24 0 18.48 0 28 0 C28 3.3 28 6.6 28 10 C22.39 10 16.78 10 11 10 C11 21.55 11 33.1 11 45 C16.61 45 22.22 45 28 45 C28 48.3 28 51.6 28 55 C18.76 55 9.52 55 0 55 C0 36.85 0 18.7 0 0 Z " fill="#FEF8F8" transform="translate(93,32)"/>
<path d="M0 0 C140.25 0 280.5 0 425 0 C425 0.66 425 1.32 425 2 C286.07 2 147.14 2 4 2 C3.67 2.66 3.34 3.32 3 4 C2.01 2.68 1.02 1.36 0 0 Z " fill="#E62C2E" transform="translate(0,0)"/>
<path d="M0 0 C8.58 0 17.16 0 26 0 C26 3.63 26 7.26 26 11 C23.69 11 21.38 11 19 11 C19 25.52 19 40.04 19 55 C15.04 55 11.08 55 7 55 C7 40.15 7 25.3 7 10 C4.69 10 2.38 10 0 10 C0 6.7 0 3.4 0 0 Z " fill="#FDF1F1" transform="translate(130,32)"/>
<path d="M0 0 C8.91 0 17.82 0 27 0 C26.67 2.31 26.34 4.62 26 7 C19.73 7 13.46 7 7 7 C7 12.94 7 18.88 7 25 C10.63 25 14.26 25 18 25 C18 26.98 18 28.96 18 31 C14.37 31 10.74 31 7 31 C7 36.94 7 42.88 7 49 C12.94 49 18.88 49 25 49 C25.33 51.31 25.66 53.62 26 56 C17.42 56 8.84 56 0 56 C0 37.52 0 19.04 0 0 Z " fill="#FDEEEF" transform="translate(360,31)"/>
<path d="M0 0 C7.59 0 15.18 0 23 0 C23 1.98 23 3.96 23 6 C20.36 6 17.72 6 15 6 C15 22.17 15 38.34 15 55 C12.69 55 10.38 55 8 55 C8 38.83 8 22.66 8 6 C5.36 6 2.72 6 0 6 C0 4.02 0 2.04 0 0 Z " fill="#FDF5F5" transform="translate(274,32)"/>
<path d="M0 0 C2.31 0 4.62 0 7 0 C7 18.48 7 36.96 7 56 C4.69 56 2.38 56 0 56 C0 37.52 0 19.04 0 0 Z " fill="#FCEBEC" transform="translate(305,31)"/>
<path d="M0 0 C10.56 0 21.12 0 32 0 C31.67 0.66 31.34 1.32 31 2 C22.42 2.33 13.84 2.66 5 3 C9.95 7.95 14.9 12.9 20 18 C19.67 18.66 19.34 19.32 19 20 C15.8293305 16.85817898 12.66414446 13.71089125 9.5 10.5625 C8.59378906 9.66466797 7.68757812 8.76683594 6.75390625 7.84179688 C5.89667969 6.98779297 5.03945312 6.13378906 4.15625 5.25390625 C3.36025391 4.46314697 2.56425781 3.6723877 1.74414062 2.85766602 C0 1 0 1 0 0 Z " fill="#E30D0F" transform="translate(222,39)"/>
</svg>
