<?xml version="1.0" encoding="UTF-8"?>
<svg version="1.1" xmlns="http://www.w3.org/2000/svg" width="150" height="150">
<path d="M0 0 C49.5 0 99 0 150 0 C150 49.5 150 99 150 150 C100.5 150 51 150 0 150 C0 100.5 0 51 0 0 Z " fill="#0B0B0A" transform="translate(0,0)"/>
<path d="M0 0 C0.65389709 -0.00817749 1.30779419 -0.01635498 1.98150635 -0.02478027 C4.14944546 -0.04962799 6.31731901 -0.0661504 8.48535156 -0.08056641 C9.22624275 -0.08589008 9.96713394 -0.09121376 10.73047638 -0.09669876 C14.6536404 -0.12343037 18.57677262 -0.14280332 22.5 -0.15722656 C25.74377704 -0.17055671 28.98692363 -0.19839065 32.23046875 -0.23925781 C36.14914152 -0.28863115 40.06724315 -0.31335342 43.98621368 -0.32045364 C45.47734051 -0.32715817 46.968455 -0.34235975 48.45940399 -0.36634445 C61.59506929 -0.56556278 61.59506929 -0.56556278 65.52539062 2.60058594 C68.5216618 6.2982158 68.75806006 8.06313025 68.80297852 12.7565918 C68.82223137 14.50399406 68.82223137 14.50399406 68.84187317 16.28669739 C68.8492601 17.55124252 68.85664703 18.81578766 68.86425781 20.11865234 C68.87232956 21.41353073 68.88040131 22.70840912 68.88871765 24.04252625 C68.90374478 26.78721995 68.91358246 29.53188776 68.92114258 32.27661133 C68.9321998 35.78732878 68.96659104 39.29741111 69.00631428 42.80790424 C69.03879345 46.16146146 69.04326051 49.51494998 69.05175781 52.86865234 C69.0692659 54.12712479 69.08677399 55.38559723 69.10481262 56.6822052 C69.10188705 57.85659653 69.09896149 59.03098785 69.09594727 60.2409668 C69.10181351 61.27195999 69.10767975 62.30295319 69.11372375 63.3651886 C68.49830256 66.93305277 67.10329189 68.60339574 64.62597656 71.19287109 C60.9023917 73.05466353 56.47438264 72.46400091 52.37597656 72.50537109 C51.43367188 72.534375 50.49136719 72.56337891 49.52050781 72.59326172 C43.56018472 72.64759847 40.1536833 72.18050824 35.62597656 68.19287109 C33.87376588 64.68844973 34.31414119 60.74202678 34.25097656 56.88037109 C34.19490234 55.59743164 34.19490234 55.59743164 34.13769531 54.28857422 C34.07999225 50.14998213 34.29091391 47.76621681 36.41113281 44.13818359 C41.26875506 41.19882044 45.86027812 41.41103926 51.43847656 41.38037109 C52.51291016 41.35523438 53.58734375 41.33009766 54.69433594 41.30419922 C57.33858427 41.24543814 59.98118144 41.20907734 62.62597656 41.19287109 C63.12097656 40.20287109 63.12097656 40.20287109 63.62597656 39.19287109 C61.31597656 39.19287109 59.00597656 39.19287109 56.62597656 39.19287109 C58.0193023 35.82566722 59.60490517 34.20691869 62.62597656 32.19287109 C62.13097656 31.20287109 62.13097656 31.20287109 61.62597656 30.19287109 C60.69785156 30.93537109 59.76972656 31.67787109 58.81347656 32.44287109 C58.29140625 32.86052734 57.76933594 33.27818359 57.23144531 33.70849609 C55.50895543 35.17495938 55.50895543 35.17495938 54.25097656 37.34912109 C52.62597656 39.19287109 52.62597656 39.19287109 50.14550781 39.58349609 C49.2521875 39.53708984 48.35886719 39.49068359 47.43847656 39.44287109 C46.53742188 39.40677734 45.63636719 39.37068359 44.70800781 39.33349609 C44.0209375 39.28708984 43.33386719 39.24068359 42.62597656 39.19287109 C45.46955833 36.17156546 48.34149261 33.58899669 51.68847656 31.13037109 C57.33261116 27.09646626 57.33261116 27.09646626 60.62597656 21.19287109 C60.09488281 21.66337891 59.56378906 22.13388672 59.01660156 22.61865234 C58.31019531 23.24126953 57.60378906 23.86388672 56.87597656 24.50537109 C55.83183594 25.42769531 55.83183594 25.42769531 54.76660156 26.36865234 C49.10563395 31.19287109 49.10563395 31.19287109 46.62597656 31.19287109 C46.62597656 27.23702818 46.69661378 25.17528418 49.47363281 22.23974609 C50.92704804 21.01959504 52.40610264 19.82922418 53.91113281 18.67333984 C54.47703125 18.18478516 55.04292969 17.69623047 55.62597656 17.19287109 C55.62597656 16.53287109 55.62597656 15.87287109 55.62597656 15.19287109 C54.26374673 15.79830657 52.93736561 16.48401215 51.62597656 17.19287109 C50.78035156 17.64662109 49.93472656 18.10037109 49.06347656 18.56787109 C46.29502737 21.54927792 46.05368611 23.03273993 45.25097656 26.94287109 C43.93302235 33.13119635 41.50634936 37.14438002 36.62597656 41.19287109 C35.63597656 41.52287109 34.64597656 41.85287109 33.62597656 42.19287109 C33.25097656 39.63037109 33.25097656 39.63037109 33.62597656 36.19287109 C34.92675781 34.58740234 34.92675781 34.58740234 36.56347656 32.94287109 C39.41785226 29.97011115 39.92605344 28.29250215 39.93847656 24.19287109 C40.0436936 20.74175239 40.2367454 19.59695841 42.67285156 17.06787109 C44.30831152 15.84889473 45.98136426 14.67829811 47.69238281 13.56787109 C48.33046875 13.11412109 48.96855469 12.66037109 49.62597656 12.19287109 C49.62597656 11.53287109 49.62597656 10.87287109 49.62597656 10.19287109 C45.3483742 12.24196538 41.49256706 14.31992436 38.62597656 18.19287109 C38.06139724 21.09879408 37.9360859 23.74741345 37.98925781 26.70458984 C37.62597656 29.19287109 37.62597656 29.19287109 35.60644531 31.02490234 C34.95289063 31.41033203 34.29933594 31.79576172 33.62597656 32.19287109 C32.59226535 19.63519408 32.59226535 19.63519408 36.43847656 14.63037109 C37.48511123 13.47002797 38.54757409 12.32375057 39.62597656 11.19287109 C40.64046973 9.87053173 41.64446401 8.5398718 42.62597656 7.19287109 C38.64216581 9.35551122 35.73614111 11.90498286 32.62597656 15.19287109 C32.62597656 12.19287109 32.62597656 9.19287109 32.62597656 6.19287109 C29.76804341 9.05080425 30.21797715 11.33952693 30.00097656 15.31787109 C29.92621094 16.59919922 29.85144531 17.88052734 29.77441406 19.20068359 C29.72542969 20.18810547 29.67644531 21.17552734 29.62597656 22.19287109 C27.66113281 21.04052734 27.66113281 21.04052734 25.62597656 19.19287109 C25.12207031 16.56396484 25.12207031 16.56396484 25.06347656 13.63037109 C25.05968645 10.75351232 25.05968645 10.75351232 24.62597656 8.19287109 C23.63597656 7.53287109 22.64597656 6.87287109 21.62597656 6.19287109 C21.80366569 8.17502398 22.02002716 10.15371588 22.25097656 12.13037109 C22.36699219 13.23251953 22.48300781 14.33466797 22.60253906 15.47021484 C23.59114084 19.06615948 24.44302597 20.40884065 26.65063477 23.25488281 C30.21754155 28.49824645 30.41836702 32.71549147 30.25488281 38.92333984 C30.2567308 39.91739334 30.2585788 40.91144684 30.26048279 41.93562317 C30.26470509 45.08473235 30.2307181 48.23156612 30.18847656 51.38037109 C30.15160821 54.53972422 30.12396671 57.69767379 30.12718201 60.85725403 C30.12894252 62.8151313 30.10795998 64.77320144 30.06092834 66.73051453 C30.06232471 71.225227 30.14049798 74.19041979 33.12158203 77.70141602 C33.94803223 78.52359619 34.77448242 79.34577637 35.62597656 80.19287109 C36.19238281 82.38818359 36.19238281 82.38818359 36.18847656 84.31787109 C36.21123326 88.20181565 36.21123326 88.20181565 38.62597656 90.13037109 C41.34936555 92.93886598 41.21701193 95.20222393 41.47363281 99.00146484 C41.58672586 101.34395657 41.58672586 101.34395657 42.25097656 104.19287109 C42.37472656 104.85287109 42.49847656 105.51287109 42.62597656 106.19287109 C41.62597656 107.19287109 41.62597656 107.19287109 39.06347656 107.25537109 C38.25910156 107.23474609 37.45472656 107.21412109 36.62597656 107.19287109 C36.24378889 105.53672452 35.91202555 103.86830085 35.62597656 102.19287109 C35.95597656 101.86287109 36.28597656 101.53287109 36.62597656 101.19287109 C36.85986095 98.33948154 37.04591738 95.98879283 36.62597656 93.19287109 C35.98660156 92.55349609 35.34722656 91.91412109 34.68847656 91.25537109 C31.87453249 88.44142703 32.10779332 86.17624391 31.99707031 82.31396484 C31.53932294 79.69757721 30.5331521 78.95879773 28.62597656 77.19287109 C28.59690072 81.5886905 28.57915216 85.98448508 28.56347656 90.38037109 C28.5509082 92.24918945 28.5509082 92.24918945 28.53808594 94.15576172 C28.53486328 95.3578125 28.53164062 96.55986328 28.52832031 97.79833984 C28.5230835 98.90330811 28.51784668 100.00827637 28.51245117 101.14672852 C28.53096128 104.17140643 28.53096128 104.17140643 29.25708008 106.9675293 C29.37881592 107.70189209 29.50055176 108.43625488 29.62597656 109.19287109 C28.96597656 109.85287109 28.30597656 110.51287109 27.62597656 111.19287109 C25.50097656 110.81787109 25.50097656 110.81787109 23.62597656 110.19287109 C23.24378889 108.53672452 22.91202555 106.86830085 22.62597656 105.19287109 C22.95597656 104.86287109 23.28597656 104.53287109 23.62597656 104.19287109 C23.71283259 102.63114365 23.73299876 101.06557765 23.72363281 99.50146484 C23.72041016 98.55722656 23.7171875 97.61298828 23.71386719 96.64013672 C23.70548828 95.64691406 23.69710937 94.65369141 23.68847656 93.63037109 C23.68396484 92.63328125 23.67945313 91.63619141 23.67480469 90.60888672 C23.66297663 88.13682261 23.64649505 85.66487591 23.62597656 83.19287109 C20.4411652 85.87760161 20.4411652 85.87760161 19.20019531 89.73583984 C19.25626953 91.04488281 19.25626953 91.04488281 19.31347656 92.38037109 C19.33796875 93.26080078 19.36246094 94.14123047 19.38769531 95.04833984 C19.39771478 97.172841 19.39771478 97.172841 20.62597656 98.19287109 C20.66661488 99.85904224 20.66869756 101.52675204 20.62597656 103.19287109 C18.25097656 103.81787109 18.25097656 103.81787109 15.62597656 104.19287109 C14.96597656 103.53287109 14.30597656 102.87287109 13.62597656 102.19287109 C14.00097656 99.56787109 14.00097656 99.56787109 14.62597656 97.19287109 C15.28597656 97.19287109 15.94597656 97.19287109 16.62597656 97.19287109 C16.54476562 96.49162109 16.46355469 95.79037109 16.37988281 95.06787109 C15.86654531 87.35733234 15.86654531 87.35733234 18.14941406 83.85693359 C20.06347656 81.81787109 20.06347656 81.81787109 21.99707031 80.04443359 C23.9678274 77.80429244 24.26945114 76.11537527 24.62597656 73.19287109 C23.96597656 73.19287109 23.30597656 73.19287109 22.62597656 73.19287109 C22.39910156 73.76392578 22.17222656 74.33498047 21.93847656 74.92333984 C20.27882391 77.79315589 18.15916564 79.37351575 15.62597656 81.50537109 C9.18493273 87.69582676 8.8784997 93.58412779 8.62597656 102.19287109 C6.15097656 102.68787109 6.15097656 102.68787109 3.62597656 103.19287109 C2.93847656 100.88037109 2.93847656 100.88037109 2.62597656 98.19287109 C3.35107422 97.50064453 3.35107422 97.50064453 4.09082031 96.79443359 C6.07223525 94.7273086 5.89538927 93.69036094 5.87597656 90.88037109 C6.08449194 87.91266387 6.306062 86.57397997 8.23925781 84.27099609 C9.98154468 82.80454222 11.73106161 81.45449855 13.62597656 80.19287109 C8.47684611 79.5404117 8.47684611 79.5404117 3.82910156 81.35302734 C1.31842205 83.78291767 -0.19220955 85.71159904 -1.43652344 89.00537109 C-1.90058594 90.08818359 -1.90058594 90.08818359 -2.37402344 91.19287109 C-4.93652344 92.06787109 -4.93652344 92.06787109 -7.37402344 92.19287109 C-8.37402344 91.19287109 -8.37402344 91.19287109 -8.43652344 88.63037109 C-8.41589844 87.82599609 -8.39527344 87.02162109 -8.37402344 86.19287109 C-7.52839844 85.84224609 -6.68277344 85.49162109 -5.81152344 85.13037109 C-2.62269047 83.33302888 -1.53278354 82.27225527 0.68847656 79.56787109 C3.10410197 76.96850685 4.21946202 76.25266742 7.78613281 75.72802734 C10.07370206 75.66355245 12.36148193 75.60611868 14.64941406 75.55615234 C17.86926447 75.16317848 18.83862324 74.76626939 20.87597656 72.31787109 C24.83005188 65.25702231 25.2648348 56.09425997 23.62597656 48.19287109 C20.55064599 42.889742 16.38741667 39.21258137 11.47363281 35.61865234 C8.35375293 33.31666909 6.87304062 32.13574819 5.86035156 28.27099609 C5.54661066 26.15577519 5.29259007 24.03048489 5.11035156 21.89990234 C4.57224586 18.89258581 4.05854881 17.97096557 1.62597656 16.19287109 C0.63597656 15.86287109 -0.35402344 15.53287109 -1.37402344 15.19287109 C-0.56964844 16.03849609 0.23472656 16.88412109 1.06347656 17.75537109 C3.84226318 21.04438689 4.36715432 23.87916713 4.62597656 28.19287109 C0.63097039 26.82315469 -2.17411836 24.93564688 -5.37402344 22.19287109 C-3.00790529 26.95073322 0.10562187 29.36694536 4.31347656 32.38037109 C6.47148319 33.93752997 8.55155558 35.52090553 10.62597656 37.19287109 C10.62597656 37.85287109 10.62597656 38.51287109 10.62597656 39.19287109 C7.53682239 39.63417883 5.61628044 39.87825484 2.62597656 39.19287109 C0.26171 37.32238056 -1.63597816 35.31350329 -3.61230469 33.04052734 C-5.33407031 30.9459795 -5.33407031 30.9459795 -8.37402344 30.19287109 C-8.37402344 31.18287109 -8.37402344 32.17287109 -8.37402344 33.19287109 C-7.77589844 33.44037109 -7.17777344 33.68787109 -6.56152344 33.94287109 C-4.08754823 35.35657121 -2.94032088 36.84342493 -1.37402344 39.19287109 C-3.68402344 39.19287109 -5.99402344 39.19287109 -8.37402344 39.19287109 C-8.37402344 40.18287109 -8.37402344 41.17287109 -8.37402344 42.19287109 C-7.74423584 42.1614502 -7.11444824 42.1300293 -6.46557617 42.09765625 C-3.581265 41.97207863 -0.69752973 41.8946363 2.18847656 41.81787109 C3.17912109 41.76759766 4.16976562 41.71732422 5.19042969 41.66552734 C10.07827099 41.56809529 13.76776733 41.68230057 17.79394531 44.64990234 C20.88815395 47.80229905 21.48535156 50.53183184 21.48535156 54.87451172 C21.44925781 55.66019531 21.41316406 56.44587891 21.37597656 57.25537109 C21.38628906 58.04492188 21.39660156 58.83447266 21.40722656 59.64794922 C21.32018283 63.97474813 21.00746609 65.72093163 18.20410156 69.18896484 C13.36362621 72.95133432 9.27125782 72.44551395 3.31347656 72.50537109 C2.36279297 72.534375 1.41210938 72.56337891 0.43261719 72.59326172 C-4.01143661 72.63363398 -6.61803843 72.6540695 -10.47949219 70.29833984 C-13.49264865 66.94969792 -13.51245236 64.96697245 -13.56689453 60.53735352 C-13.58295746 59.35239792 -13.59902039 58.16744232 -13.61557007 56.94657898 C-13.65992306 51.52500878 -13.70152434 46.10358434 -13.72412109 40.68188477 C-13.73745721 37.81925476 -13.76530223 34.95733818 -13.80615234 32.0949707 C-13.86494709 27.97513787 -13.88278024 23.85607032 -13.89746094 19.73583984 C-13.931465 17.81532051 -13.931465 17.81532051 -13.96615601 15.85600281 C-13.94258911 5.97943329 -13.94258911 5.97943329 -10.96630859 2.90893555 C-6.95763601 0.25523809 -4.82097268 0.05229949 0 0 Z " fill="#F69F12" transform="translate(47.3740234375,19.80712890625)"/>
<path d="M0 0 C2.62791446 0.36247096 3.77739043 0.76454757 5.625 2.71875 C7.28250445 5.46870056 7.31303482 7.06978456 7.1875 10.25 C7.16042969 11.14203125 7.13335937 12.0340625 7.10546875 12.953125 C7.07066406 13.62859375 7.03585938 14.3040625 7 15 C7.9075 15.061875 8.815 15.12375 9.75 15.1875 C13 16 13 16 15.17602539 17.90454102 C17.80957774 22.37393069 17.51020165 26.2443645 17.43359375 31.33984375 C17.44319897 33.39257888 17.45296968 35.44531324 17.46289062 37.49804688 C17.45429032 40.72168649 17.43744756 43.94512696 17.4152832 47.16870117 C17.40074746 50.28864433 17.41602608 53.40744112 17.43359375 56.52734375 C17.41711288 57.48688461 17.40063202 58.44642548 17.38365173 59.43504333 C17.43113602 65.8136708 18.46947106 68.50088391 23 73 C23.56640625 75.1953125 23.56640625 75.1953125 23.5625 77.125 C23.5852567 81.00894455 23.5852567 81.00894455 26 82.9375 C28.72338898 85.74599489 28.59103536 88.00935283 28.84765625 91.80859375 C28.9607493 94.15108547 28.9607493 94.15108547 29.625 97 C29.74875 97.66 29.8725 98.32 30 99 C29 100 29 100 26.4375 100.0625 C25.633125 100.041875 24.82875 100.02125 24 100 C23.61781233 98.34385343 23.28604898 96.67542976 23 95 C23.33 94.67 23.66 94.34 24 94 C24.23388439 91.14661044 24.41994081 88.79592173 24 86 C23.360625 85.360625 22.72125 84.72125 22.0625 84.0625 C19.24855593 81.24855593 19.48181676 78.98337282 19.37109375 75.12109375 C18.91334637 72.50470612 17.90717554 71.76592663 16 70 C15.97092416 74.3958194 15.9531756 78.79161399 15.9375 83.1875 C15.92493164 85.05631836 15.92493164 85.05631836 15.91210938 86.96289062 C15.90888672 88.16494141 15.90566406 89.36699219 15.90234375 90.60546875 C15.89710693 91.71043701 15.89187012 92.81540527 15.88647461 93.95385742 C15.90498472 96.97853533 15.90498472 96.97853533 16.63110352 99.7746582 C16.75283936 100.509021 16.8745752 101.24338379 17 102 C16.34 102.66 15.68 103.32 15 104 C12.875 103.625 12.875 103.625 11 103 C10.61781233 101.34385343 10.28604898 99.67542976 10 98 C10.33 97.67 10.66 97.34 11 97 C11.08685603 95.43827255 11.10702219 93.87270656 11.09765625 92.30859375 C11.09443359 91.36435547 11.09121094 90.42011719 11.08789062 89.44726562 C11.07951172 88.45404297 11.07113281 87.46082031 11.0625 86.4375 C11.05798828 85.44041016 11.05347656 84.44332031 11.04882812 83.41601562 C11.03700007 80.94395151 11.02051849 78.47200482 11 76 C7.81518864 78.68473051 7.81518864 78.68473051 6.57421875 82.54296875 C6.61160156 83.41566406 6.64898437 84.28835937 6.6875 85.1875 C6.71199219 86.06792969 6.73648438 86.94835937 6.76171875 87.85546875 C6.77173822 89.9799699 6.77173822 89.9799699 8 91 C8.04063832 92.66617115 8.042721 94.33388095 8 96 C5.625 96.625 5.625 96.625 3 97 C2.34 96.34 1.68 95.68 1 95 C1.375 92.375 1.375 92.375 2 90 C2.66 90 3.32 90 4 90 C3.91878906 89.29875 3.83757813 88.5975 3.75390625 87.875 C3.24056875 80.16446125 3.24056875 80.16446125 5.5234375 76.6640625 C7.4375 74.625 7.4375 74.625 9.37109375 72.8515625 C11.34185084 70.61142135 11.64347458 68.92250417 12 66 C11.34 66 10.68 66 10 66 C9.773125 66.57105469 9.54625 67.14210938 9.3125 67.73046875 C7.65284734 70.6002848 5.53318908 72.18064465 3 74.3125 C-3.44104383 80.50295567 -3.74747686 86.3912567 -4 95 C-6.475 95.495 -6.475 95.495 -9 96 C-9.6875 93.6875 -9.6875 93.6875 -10 91 C-9.27490234 90.30777344 -9.27490234 90.30777344 -8.53515625 89.6015625 C-6.55374131 87.5344375 -6.73058729 86.49748984 -6.75 83.6875 C-6.54148462 80.71979278 -6.31991456 79.38110887 -4.38671875 77.078125 C-2.64443188 75.61167112 -0.89491496 74.26162745 1 73 C-4.14913045 72.34754061 -4.14913045 72.34754061 -8.796875 74.16015625 C-11.30755452 76.59004658 -12.81818611 78.51872795 -14.0625 81.8125 C-14.5265625 82.8953125 -14.5265625 82.8953125 -15 84 C-17.5625 84.875 -17.5625 84.875 -20 85 C-21 84 -21 84 -21.0625 81.4375 C-21.0315625 80.2309375 -21.0315625 80.2309375 -21 79 C-20.154375 78.649375 -19.30875 78.29875 -18.4375 77.9375 C-15.24866703 76.14015778 -14.1587601 75.07938417 -11.9375 72.375 C-9.5218746 69.77563575 -8.40651454 69.05979633 -4.83984375 68.53515625 C-2.55227451 68.47068136 -0.26449463 68.41324758 2.0234375 68.36328125 C5.2432879 67.97030738 6.21264667 67.5733983 8.25 65.125 C12.20407532 58.06415122 12.63885824 48.90138887 11 41 C7.47984422 34.92981011 2.2684135 31.01773548 -3.125 26.6875 C-6 24 -6 24 -6.4375 20.625 C-6.293125 19.75875 -6.14875 18.8925 -6 18 C-5.01 18.33 -4.02 18.66 -3 19 C-2.67 18.01 -2.34 17.02 -2 16 C-1.01 16 -0.02 16 1 16 C1.309375 17.60875 1.309375 17.60875 1.625 19.25 C3.2588343 23.70591174 4.91110799 24.77777608 9 27 C7.05048292 18.33547965 -0.30072249 12.5655357 -6.49609375 6.6640625 C-8 5 -8 5 -8 3 C-4.40642281 3.56990652 -2.82750729 4.86382477 -0.375 7.5 C2.03610916 10.11806646 2.03610916 10.11806646 5 12 C4.54625 10.948125 4.0925 9.89625 3.625 8.8125 C2.37239999 5.89174547 1.16489979 2.95705332 0 0 Z " fill="#F5A212" transform="translate(60,27)"/>
<path d="M0 0 C0.99 0.33 1.98 0.66 3 1 C1.83408517 4.14797005 0.73447681 5.20467413 -2 7.3125 C-5.55122662 10.08418907 -6.14789423 12.65426059 -7 17 C-3.5097254 14.83935382 -0.60088214 12.71323217 2.25 9.75 C3.1575 8.8425 4.065 7.935 5 7 C5.66 7 6.32 7 7 7 C5.95976846 12.95532557 1.23684542 16.37997091 -3.46484375 19.78515625 C-5.62253763 21.22702751 -7.79357169 22.63411581 -10 24 C-6.89656441 24.43448098 -4.08930846 24.5915697 -1 24 C0.92355227 22.40332589 2.20351644 20.78405709 3.61328125 18.7265625 C5.20827302 16.74068542 6.67537921 15.98139641 9 15 C9 16.32 9 17.64 9 19 C6.5625 21.125 6.5625 21.125 4 23 C3.67 23.66 3.34 24.32 3 25 C5.31 25 7.62 25 10 25 C9.67 25.99 9.34 26.98 9 28 C8.32420898 28.0093457 7.64841797 28.01869141 6.95214844 28.02832031 C3.8840289 28.08207301 0.81742613 28.16570992 -2.25 28.25 C-3.31347656 28.26417969 -4.37695312 28.27835938 -5.47265625 28.29296875 C-6.49746094 28.32519531 -7.52226563 28.35742188 -8.578125 28.390625 C-9.52075195 28.41157227 -10.46337891 28.43251953 -11.43457031 28.45410156 C-14.7614579 29.16203082 -15.96405562 30.30812375 -18 33 C-18.58922631 35.13781939 -18.58922631 35.13781939 -18.49609375 37.40625 C-18.49673828 38.23253906 -18.49738281 39.05882812 -18.49804688 39.91015625 C-18.47806641 40.76480469 -18.45808594 41.61945313 -18.4375 42.5 C-18.44813477 43.78197266 -18.44813477 43.78197266 -18.45898438 45.08984375 C-18.41132539 49.78975262 -18.21216042 52.36963587 -15 56 C-15.33 56.99 -15.66 57.98 -16 59 C-14.14134598 61.30713532 -14.14134598 61.30713532 -11.20703125 61.1328125 C-9.52673828 61.12894531 -9.52673828 61.12894531 -7.8125 61.125 C-1.67512409 61.4768672 -1.67512409 61.4768672 1.23828125 63.734375 C2.39345871 65.13800527 3.50554698 66.57847934 4.56640625 68.0546875 C6.34199281 70.46406653 8.32545787 71.7032523 11 73 C10.505 74.98 10.505 74.98 10 77 C7.525 77.495 7.525 77.495 5 78 C4.74605469 77.38511719 4.49210937 76.77023438 4.23046875 76.13671875 C3.88628906 75.32847656 3.54210937 74.52023438 3.1875 73.6875 C2.85105469 72.88699219 2.51460937 72.08648437 2.16796875 71.26171875 C0.98683506 68.97450668 0.04093404 67.56071427 -2 66 C-5.62535976 65.7496423 -5.62535976 65.7496423 -9 66 C-8.195625 66.78375 -7.39125 67.5675 -6.5625 68.375 C-3.51336248 71.95516708 -3.37020746 75.24542502 -3.23828125 79.828125 C-3.20608341 82.21109901 -3.20608341 82.21109901 -1 84 C-1.375 86.125 -1.375 86.125 -2 88 C-3.875 88.625 -3.875 88.625 -6 89 C-6.66 88.34 -7.32 87.68 -8 87 C-7.80291406 84.72615776 -7.56710892 82.45562162 -7.3125 80.1875 C-6.99968188 75.21857405 -7.53497368 72.0522135 -10.8515625 68.22265625 C-13.14662512 65.88648994 -15.57239902 63.73897857 -18.05859375 61.609375 C-21 59 -21 59 -22 56 C-22.08315752 53.93501108 -22.10735878 51.8674211 -22.09765625 49.80078125 C-22.09443359 48.59228516 -22.09121094 47.38378906 -22.08789062 46.13867188 C-22.07951172 44.87603516 -22.07113281 43.61339844 -22.0625 42.3125 C-22.05573242 40.40114258 -22.05573242 40.40114258 -22.04882812 38.45117188 C-22.03702873 35.30073436 -22.02056597 32.15039051 -22 29 C-21.01 29 -20.02 29 -19 29 C-19 28.34 -19 27.68 -19 27 C-18.071875 26.2575 -17.14375 25.515 -16.1875 24.75 C-11.68763316 21.10775484 -10.16258911 17.1883706 -9.3125 11.5625 C-8.33579913 6.60321712 -5.74946616 4.2939435 -1.97265625 1.1171875 C-1.32167969 0.74851563 -0.67070313 0.37984375 0 0 Z " fill="#120F0A" transform="translate(101,34)"/>
<path d="M0 0 C0.66 0.33 1.32 0.66 2 1 C1.67 3.64 1.34 6.28 1 9 C1.39832031 8.4946875 1.79664062 7.989375 2.20703125 7.46875 C2.73683594 6.8190625 3.26664063 6.169375 3.8125 5.5 C4.33457031 4.8503125 4.85664062 4.200625 5.39453125 3.53125 C7 2 7 2 10 2 C8.64947638 4.98950859 7.06924555 7.08314983 4.875 9.5 C0.88526304 14.61306095 1.4410972 19.78996894 2 26 C4.25652066 24.20181935 4.25652066 24.20181935 4.0625 21.71484375 C4.041875 20.79832031 4.02125 19.88179687 4 18.9375 C4.33626918 13.51426517 6.02987952 11.38570802 10.0625 7.8125 C11.68554967 6.51269444 13.32453907 5.2315094 15 4 C15.99 4.33 16.98 4.66 18 5 C16.81528941 8.55413178 16.09102248 8.71340619 13 10.5625 C9.79414813 12.81657104 9.79414813 12.81657104 8.4609375 16.3671875 C8.40322696 18.09325727 8.36311006 19.81999746 8.33984375 21.546875 C7.83446634 25.19488661 5.8225005 26.80038733 3.30078125 29.328125 C1.16829218 32.06898182 1.59569427 34.6981699 2 38 C1.34 38 0.68 38 0 38 C-0.33 34.37 -0.66 30.74 -1 27 C-1.33 40.86 -1.66 54.72 -2 69 C-2.33 69 -2.66 69 -3 69 C-2.99880661 68.165541 -2.99880661 68.165541 -2.99758911 67.31422424 C-2.9951388 61.48928088 -3.03458823 55.66565888 -3.09765625 49.84106445 C-3.11575051 47.67153063 -3.12339677 45.50188218 -3.12011719 43.33227539 C-3.11724125 40.20109497 -3.15275244 37.07226005 -3.1953125 33.94140625 C-3.18621857 32.98166397 -3.17712463 32.02192169 -3.16775513 31.03309631 C-3.30283603 24.68015721 -4.72256908 20.97168963 -8.63720703 15.94763184 C-10.67131264 13.04059538 -10.80158748 10.4245946 -10.875 6.9375 C-10.91367188 5.81214844 -10.95234375 4.68679687 -10.9921875 3.52734375 C-10.99476562 2.69332031 -10.99734375 1.85929687 -11 1 C-9.0390625 1.65625 -9.0390625 1.65625 -7 3 C-6.4609375 5.53125 -6.4609375 5.53125 -6.375 8.5 C-6.42598911 12.75411041 -6.42598911 12.75411041 -4 16 C-3.96261719 15.09636719 -3.92523438 14.19273438 -3.88671875 13.26171875 C-3.82097656 12.08222656 -3.75523438 10.90273438 -3.6875 9.6875 C-3.62949219 8.51574219 -3.57148437 7.34398437 -3.51171875 6.13671875 C-2.98395232 2.9016314 -2.57619276 1.91315119 0 0 Z " fill="#2D210B" transform="translate(80,25)"/>
<path d="M0 0 C3.28528747 0.56642887 4.95025909 1.34570067 7 4 C7.30859375 6.53125 7.30859375 6.53125 7.4375 9.5 C8.56622078 17.99129396 14.6028507 22.03096048 21 27 C20.01 27.99 19.02 28.98 18 30 C17.01 29.34 16.02 28.68 15 28 C12.58286521 27.6336141 12.58286521 27.6336141 9.89453125 27.5859375 C8.91162109 27.54726563 7.92871094 27.50859375 6.91601562 27.46875 C5.37977539 27.42234375 5.37977539 27.42234375 3.8125 27.375 C2.77673828 27.33632813 1.74097656 27.29765625 0.67382812 27.2578125 C-1.88393622 27.16351704 -4.44169287 27.07791798 -7 27 C-7 26.01 -7 25.02 -7 24 C-5.02 23.67 -3.04 23.34 -1 23 C-1.99 22.236875 -2.98 21.47375 -4 20.6875 C-5.6875 19.38671875 -5.6875 19.38671875 -7 18 C-7 17.01 -7 16.02 -7 15 C-3.40966736 15.56196511 -2.06287659 16.76047627 0.25 19.5 C2.89680091 22.30756105 4.57907166 23.49361001 8.4375 23.9375 C9.613125 23.958125 10.78875 23.97875 12 24 C8.30268562 20.0641492 4.29057073 16.81184437 -0.01171875 13.55078125 C-2 12 -2 12 -4 10 C-4 9.01 -4 8.02 -4 7 C-0.88801935 8.49836105 2.0534615 10.19933758 5 12 C3.64419322 6.32870721 3.64419322 6.32870721 0 2 C0 1.34 0 0.68 0 0 Z " fill="#19130B" transform="translate(46,35)"/>
<path d="M0 0 C3.74319066 1.67798202 3.74319066 1.67798202 5.24609375 3.5625 C7.83291194 5.68265388 9.95792946 5.22960788 13.25 5.1875 C19.34435328 5.49221766 19.34435328 5.49221766 22.234375 7.73046875 C23.39098292 9.13528678 24.50448129 10.57699641 25.56640625 12.0546875 C27.34199281 14.46406653 29.32545787 15.7032523 32 17 C31.67 18.32 31.34 19.64 31 21 C29.35 21.33 27.7 21.66 26 22 C25.74605469 21.38511719 25.49210937 20.77023438 25.23046875 20.13671875 C24.88628906 19.32847656 24.54210937 18.52023438 24.1875 17.6875 C23.68283203 16.48673828 23.68283203 16.48673828 23.16796875 15.26171875 C21.98683506 12.97450668 21.04093404 11.56071427 19 10 C15.37464024 9.7496423 15.37464024 9.7496423 12 10 C12.804375 10.78375 13.60875 11.5675 14.4375 12.375 C17.48663752 15.95516708 17.62979254 19.24542502 17.76171875 23.828125 C17.79391659 26.21109901 17.79391659 26.21109901 20 28 C19.625 30.125 19.625 30.125 19 32 C17.125 32.625 17.125 32.625 15 33 C14.34 32.34 13.68 31.68 13 31 C13.19708594 28.72615776 13.43289108 26.45562162 13.6875 24.1875 C14.0070177 19.19866678 13.46631723 16.04877659 10.11328125 12.22265625 C7.79765997 9.8838884 5.3479366 7.74262188 2.84375 5.609375 C1.9053125 4.74828125 0.966875 3.8871875 0 3 C0 2.01 0 1.02 0 0 Z " fill="#D69011" transform="translate(80,90)"/>
<path d="M0 0 C2.63600583 0.36358701 3.7718664 0.75354911 5.60546875 2.734375 C7.60535829 5.98349525 7.45704821 8.82598439 7.59375 12.5625 C7.8018718 15.0740797 7.8018718 15.0740797 9.51953125 16.828125 C11.6757562 19.99134683 11.32319211 23.06891648 11.1875 26.75 C11.16719727 27.79607422 11.16719727 27.79607422 11.14648438 28.86328125 C11.1112945 30.57585541 11.05749155 32.28802941 11 34 C9.28399394 32.56092864 7.58035537 31.11055305 5.890625 29.640625 C4.29951813 28.25991243 2.68369971 26.90775082 1.0625 25.5625 C-1.61291174 22.23850359 -1.40747333 20.15622798 -1 16 C-0.34 16 0.32 16 1 16 C1.20625 17.0725 1.4125 18.145 1.625 19.25 C3.2588343 23.70591174 4.91110799 24.77777608 9 27 C7.05048292 18.33547965 -0.30072249 12.5655357 -6.49609375 6.6640625 C-8 5 -8 5 -8 3 C-4.40642281 3.56990652 -2.82750729 4.86382477 -0.375 7.5 C2.03610916 10.11806646 2.03610916 10.11806646 5 12 C4.54625 10.948125 4.0925 9.89625 3.625 8.8125 C2.37239999 5.89174547 1.16489979 2.95705332 0 0 Z " fill="#100D0A" transform="translate(60,27)"/>
<path d="M0 0 C0.66 0.33 1.32 0.66 2 1 C1.99476318 1.82201904 1.98952637 2.64403809 1.98413086 3.4909668 C1.96331607 7.22313673 1.95032545 10.95529442 1.9375 14.6875 C1.92912109 15.98107422 1.92074219 17.27464844 1.91210938 18.60742188 C1.90888672 19.85458984 1.90566406 21.10175781 1.90234375 22.38671875 C1.89710693 23.53358154 1.89187012 24.68044434 1.88647461 25.86206055 C1.90169941 28.96574377 1.90169941 28.96574377 2.63110352 31.78833008 C2.75283936 32.51818115 2.8745752 33.24803223 3 34 C2.34 34.66 1.68 35.32 1 36 C-1.125 35.625 -1.125 35.625 -3 35 C-3.38218767 33.34385343 -3.71395102 31.67542976 -4 30 C-3.67 29.67 -3.34 29.34 -3 29 C-2.91314397 27.43827255 -2.89297781 25.87270656 -2.90234375 24.30859375 C-2.90556641 23.36435547 -2.90878906 22.42011719 -2.91210938 21.44726562 C-2.92048828 20.45404297 -2.92886719 19.46082031 -2.9375 18.4375 C-2.94201172 17.44041016 -2.94652344 16.44332031 -2.95117188 15.41601562 C-2.96299993 12.94395151 -2.97948151 10.47200482 -3 8 C-6.18481136 10.68473051 -6.18481136 10.68473051 -7.42578125 14.54296875 C-7.36970703 15.85201172 -7.36970703 15.85201172 -7.3125 17.1875 C-7.28800781 18.06792969 -7.26351562 18.94835937 -7.23828125 19.85546875 C-7.22826178 21.9799699 -7.22826178 21.9799699 -6 23 C-5.95936168 24.66617115 -5.957279 26.33388095 -6 28 C-8.375 28.625 -8.375 28.625 -11 29 C-11.66 28.34 -12.32 27.68 -13 27 C-12.625 24.375 -12.625 24.375 -12 22 C-11.34 22 -10.68 22 -10 22 C-10.12181641 20.948125 -10.12181641 20.948125 -10.24609375 19.875 C-10.75586076 12.2180914 -10.75586076 12.2180914 -8.44140625 8.48828125 C-6.70637388 6.54378823 -4.945725 4.73229088 -3 3 C-2.34 3.33 -1.68 3.66 -1 4 C-0.67 2.68 -0.34 1.36 0 0 Z " fill="#F2A112" transform="translate(74,95)"/>
<path d="M0 0 C-1.35052362 2.98950859 -2.93075445 5.08314983 -5.125 7.5 C-9.11473696 12.61306095 -8.5589028 17.78996894 -8 24 C-5.74347934 22.20181935 -5.74347934 22.20181935 -5.9375 19.71484375 C-5.958125 18.79832031 -5.97875 17.88179687 -6 16.9375 C-5.66373082 11.51426517 -3.97012048 9.38570802 0.0625 5.8125 C1.68554967 4.51269444 3.32453907 3.2315094 5 2 C5.99 2.33 6.98 2.66 8 3 C6.81528941 6.55413178 6.09102248 6.71340619 3 8.5625 C-0.20585187 10.81657104 -0.20585187 10.81657104 -1.5390625 14.3671875 C-1.59677304 16.09325727 -1.63688994 17.81999746 -1.66015625 19.546875 C-2.16553366 23.19488661 -4.1774995 24.80038733 -6.69921875 27.328125 C-8.83170782 30.06898182 -8.40430573 32.6981699 -8 36 C-8.66 36 -9.32 36 -10 36 C-10.79867697 29.39665291 -11.19735789 22.77153697 -11.375 16.125 C-11.41302734 15.39998291 -11.45105469 14.67496582 -11.49023438 13.92797852 C-11.55385129 9.88970768 -11.2049058 8.24489548 -8.578125 5.10546875 C-7.72734375 4.41066406 -6.8765625 3.71585938 -6 3 C-5.46375 2.401875 -4.9275 1.80375 -4.375 1.1875 C-3 0 -3 0 0 0 Z " fill="#22190B" transform="translate(90,27)"/>
<path d="M0 0 C0.99 0.33 1.98 0.66 3 1 C1.83408517 4.14797005 0.73447681 5.20467413 -2 7.3125 C-5.55122662 10.08418907 -6.14789423 12.65426059 -7 17 C-3.5097254 14.83935382 -0.60088214 12.71323217 2.25 9.75 C3.1575 8.8425 4.065 7.935 5 7 C5.66 7 6.32 7 7 7 C5.96655128 12.9164939 1.29994165 16.3528966 -3.39453125 19.71484375 C-4.94581182 20.73984174 -6.50761396 21.7491895 -8.08203125 22.73828125 C-10.12327055 23.98851844 -10.12327055 23.98851844 -12 26 C-12.6875 24.375 -12.6875 24.375 -13 22 C-12.01873444 19.99074195 -11.0150089 17.99242489 -10 16 C-9.7469432 14.52473269 -9.51923869 13.04496771 -9.3125 11.5625 C-8.33579913 6.60321712 -5.74946616 4.2939435 -1.97265625 1.1171875 C-0.99619141 0.56417969 -0.99619141 0.56417969 0 0 Z " fill="#17120A" transform="translate(101,34)"/>
<path d="M0 0 C6 6 6 6 6.3125 9.8125 C6.66367381 13.30560022 6.66367381 13.30560022 9 15.9375 C11.72338898 18.74599489 11.59103536 21.00935283 11.84765625 24.80859375 C11.9607493 27.15108547 11.9607493 27.15108547 12.625 30 C12.74875 30.66 12.8725 31.32 13 32 C12 33 12 33 9.4375 33.0625 C8.633125 33.041875 7.82875 33.02125 7 33 C6.61781233 31.34385343 6.28604898 29.67542976 6 28 C6.33 27.67 6.66 27.34 7 27 C7.23388439 24.14661044 7.41994081 21.79592173 7 19 C6.360625 18.360625 5.72125 17.72125 5.0625 17.0625 C2.23877588 14.23877588 2.53560937 11.98880971 2.28125 8.12890625 C1.92403001 5.4249494 0.91400531 3.91400531 -1 2 C-0.67 1.34 -0.34 0.68 0 0 Z " fill="#E29811" transform="translate(77,94)"/>
<path d="M0 0 C0.66 0.33 1.32 0.66 2 1 C1.99214478 2.23302856 1.99214478 2.23302856 1.98413086 3.4909668 C1.96331607 7.22313673 1.95032545 10.95529442 1.9375 14.6875 C1.92912109 15.98107422 1.92074219 17.27464844 1.91210938 18.60742188 C1.90888672 19.85458984 1.90566406 21.10175781 1.90234375 22.38671875 C1.89710693 23.53358154 1.89187012 24.68044434 1.88647461 25.86206055 C1.90169941 28.96574377 1.90169941 28.96574377 2.63110352 31.78833008 C2.75283936 32.51818115 2.8745752 33.24803223 3 34 C2.34 34.66 1.68 35.32 1 36 C-1.125 35.625 -1.125 35.625 -3 35 C-3.38218767 33.34385343 -3.71395102 31.67542976 -4 30 C-3.67 29.67 -3.34 29.34 -3 29 C-2.76572222 26.98405418 -2.58663876 24.961526 -2.4375 22.9375 C-2.35371094 21.83277344 -2.26992187 20.72804688 -2.18359375 19.58984375 C-2.12300781 18.73519531 -2.06242187 17.88054687 -2 17 C-1.67 17 -1.34 17 -1 17 C-0.67 11.39 -0.34 5.78 0 0 Z " fill="#B37810" transform="translate(74,95)"/>
<path d="M0 0 C0.12086218 6.43255401 -0.17648136 12.61773055 -1 19 C-1.99 19.33 -2.98 19.66 -4 20 C-6.51919907 15.27650175 -6.87305276 10.22119785 -6 5 C-2.1 0 -2.1 0 0 0 Z " fill="#1E160A" transform="translate(72,102)"/>
<path d="M0 0 C3.62292226 0.55676944 4.86446147 1.7510262 7.125 4.5625 C9.34922666 6.93694677 10.43516431 7.90269984 13.67578125 8.4609375 C16.15195744 8.43992327 18.54434754 8.31127989 21 8 C20.67 8.99 20.34 9.98 20 11 C13.4 11 6.8 11 0 11 C0 10.34 0 9.68 0 9 C1.98 8.67 3.96 8.34 6 8 C5.01 7.236875 4.02 6.47375 3 5.6875 C1.3125 4.38671875 1.3125 4.38671875 0 3 C0 2.01 0 1.02 0 0 Z " fill="#08080A" transform="translate(39,50)"/>
<path d="M0 0 C8.4849653 -1.07555898 8.4849653 -1.07555898 12.046875 1.453125 C13.2175402 2.68594941 14.35668872 3.94953609 15.4609375 5.2421875 C17.35697592 7.40771362 19.4545336 8.68869913 22 10 C21.67 11.32 21.34 12.64 21 14 C19.35 14.33 17.7 14.66 16 15 C15.63648437 14.09507813 15.63648437 14.09507813 15.265625 13.171875 C12.73908038 6.76093789 12.73908038 6.76093789 8 2 C5.29677266 1.39697236 2.78094183 1.18539612 0 1 C0 0.67 0 0.34 0 0 Z " fill="#D79111" transform="translate(90,97)"/>
<path d="M0 0 C0.66 0 1.32 0 2 0 C1.93134591 3.43270443 1.81345915 6.05167789 -0.484375 8.73046875 C-2.92793478 10.84508779 -5.17848679 12.64068116 -8.15234375 13.94140625 C-10.43881814 14.98218538 -10.43881814 14.98218538 -11.25 18.625 C-11.4975 19.73875 -11.745 20.8525 -12 22 C-12.33 22 -12.66 22 -13 22 C-13.70883876 15.12053331 -13.70883876 15.12053331 -11.89111328 12.24707031 C-10.35306481 10.60303696 -8.75750899 9.1064494 -7.0625 7.625 C-3.0320202 4.20868831 -3.0320202 4.20868831 0 0 Z " fill="#17120A" transform="translate(70,93)"/>
<path d="M0 0 C0.66 0.99 1.32 1.98 2 3 C0.576875 4.3303125 0.576875 4.3303125 -0.875 5.6875 C-3.02615352 7.80355312 -3.97446264 8.93240111 -5.0625 11.8125 C-5.371875 12.534375 -5.68125 13.25625 -6 14 C-8.5625 14.875 -8.5625 14.875 -11 15 C-12 14 -12 14 -12.0625 11.4375 C-12.041875 10.633125 -12.02125 9.82875 -12 9 C-11.13375 8.62875 -10.2675 8.2575 -9.375 7.875 C-5.43358021 5.68532234 -3.06365854 3.28249129 0 0 Z " fill="#C68510" transform="translate(51,97)"/>
<path d="M0 0 C0.99 0 1.98 0 3 0 C3.22084624 6.09781001 3.01167675 11.21642935 1 17 C-0.65 16.67 -2.3 16.34 -4 16 C-3.25 11.25 -3.25 11.25 -1 9 C-0.53993654 6.79749008 -0.53993654 6.79749008 -0.375 4.375 C-0.30023438 3.55773437 -0.22546875 2.74046875 -0.1484375 1.8984375 C-0.09945312 1.27195312 -0.05046875 0.64546875 0 0 Z " fill="#C38410" transform="translate(54,106)"/>
<path d="M0 0 C0.99 0.33 1.98 0.66 3 1 C1.83408517 4.14797005 0.73447681 5.20467413 -2 7.3125 C-5.44811982 9.99251564 -5.95080023 12.80320093 -7 17 C-7.99 17.33 -8.98 17.66 -10 18 C-9.88538044 13.2172384 -9.80196748 9.97536585 -6.6875 6.1875 C-5.800625 5.465625 -4.91375 4.74375 -4 4 C-3.236875 3.236875 -2.47375 2.47375 -1.6875 1.6875 C-1.130625 1.130625 -0.57375 0.57375 0 0 Z " fill="#22190B" transform="translate(101,34)"/>
<path d="M0 0 C2.37948772 0.17625835 3.70225849 0.69719773 5.37890625 2.40234375 C6.62115486 3.90649092 7.81376056 5.45129851 9 7 C8.01 7.66 7.02 8.32 6 9 C5.01 8.34 4.02 7.68 3 7 C0.58286521 6.6336141 0.58286521 6.6336141 -2.10546875 6.5859375 C-3.08837891 6.54726563 -4.07128906 6.50859375 -5.08398438 6.46875 C-6.62022461 6.42234375 -6.62022461 6.42234375 -8.1875 6.375 C-9.22326172 6.33632813 -10.25902344 6.29765625 -11.32617188 6.2578125 C-13.88393622 6.16351704 -16.44169287 6.07791798 -19 6 C-19 5.67 -19 5.34 -19 5 C-9.1 4.505 -9.1 4.505 1 4 C0.67 2.68 0.34 1.36 0 0 Z " fill="#2D210B" transform="translate(58,56)"/>
<path d="M0 0 C0.06058594 0.59167969 0.12117188 1.18335937 0.18359375 1.79296875 C0.54876528 5.23681719 0.91808888 8.60682663 1.625 12 C1.74875 12.66 1.8725 13.32 2 14 C1 15 1 15 -1.5625 15.0625 C-2.366875 15.041875 -3.17125 15.02125 -4 15 C-4.38218767 13.34385343 -4.71395102 11.67542976 -5 10 C-4.67 9.67 -4.34 9.34 -4 9 C-3.72046781 6.9412232 -3.55265649 4.88271568 -3.37890625 2.8125 C-3.25386719 2.214375 -3.12882812 1.61625 -3 1 C-1 0 -1 0 0 0 Z " fill="#CD8911" transform="translate(88,112)"/>
<path d="M0 0 C2.3125 -0.25 2.3125 -0.25 5 0 C7.40311451 2.23738248 7.96341425 3.46340904 8.1875 6.75 C8.125625 7.4925 8.06375 8.235 8 9 C5.04709864 7.62901008 2.39580248 6.22467373 0 4 C0 2.68 0 1.36 0 0 Z " fill="#E59811" transform="translate(61,45)"/>
<path d="M0 0 C0.144375 0.598125 0.28875 1.19625 0.4375 1.8125 C0.8872439 3.56150404 1.42892341 5.28677023 2 7 C1.01 7 0.02 7 -1 7 C-1.2475 7.639375 -1.495 8.27875 -1.75 8.9375 C-3 11 -3 11 -4.6875 11.65625 C-7.63319717 12.0941239 -10.28843638 11.85221818 -13.25 11.5625 C-14.32765625 11.46066406 -15.4053125 11.35882813 -16.515625 11.25390625 C-17.33546875 11.17011719 -18.1553125 11.08632812 -19 11 C-19 10.67 -19 10.34 -19 10 C-18.11957031 9.99742188 -17.23914062 9.99484375 -16.33203125 9.9921875 C-9.88355539 9.99960025 -9.88355539 9.99960025 -4.05859375 7.703125 C-2.07132172 5.30653425 -0.98028045 2.94084135 0 0 Z " fill="#C88610" transform="translate(71,86)"/>
<path d="M0 0 C0.33 0 0.66 0 1 0 C1 5.28 1 10.56 1 16 C-0.32 16.33 -1.64 16.66 -3 17 C-3.99 15.35 -4.98 13.7 -6 12 C-4.68 12 -3.36 12 -2 12 C-1.67 12.33 -1.34 12.66 -1 13 C-0.67 8.71 -0.34 4.42 0 0 Z " fill="#48330C" transform="translate(77,28)"/>
<path d="M0 0 C0.99 0.33 1.98 0.66 3 1 C3.99 1 4.98 1 6 1 C6 2.65 6 4.3 6 6 C3.625 6.625 3.625 6.625 1 7 C0.34 6.34 -0.32 5.68 -1 5 C-0.625 2.375 -0.625 2.375 0 0 Z " fill="#C58510" transform="translate(62,117)"/>
<path d="M0 0 C0.66 0.33 1.32 0.66 2 1 C0.40758592 5.29951803 -2.35540725 7.39671947 -6 10 C-6.99 9.67 -7.98 9.34 -9 9 C-8.06725891 7.87105124 -7.12859878 6.74699124 -6.1875 5.625 C-5.66542969 4.99851562 -5.14335938 4.37203125 -4.60546875 3.7265625 C-3 2 -3 2 0 0 Z " fill="#1D160B" transform="translate(109,49)"/>
<path d="M0 0 C2.375 0.3125 2.375 0.3125 5 1 C5.66 1.99 6.32 2.98 7 4 C6.01 4 5.02 4 4 4 C4 9.28 4 14.56 4 20 C3.34 19.67 2.68 19.34 2 19 C2.02320312 17.96359375 2.04640625 16.9271875 2.0703125 15.859375 C2.08907667 14.48959056 2.10727618 13.1197983 2.125 11.75 C2.14175781 11.06808594 2.15851563 10.38617188 2.17578125 9.68359375 C2.21213482 5.9391765 2.07944349 3.17647273 0 0 Z " fill="#C48210" transform="translate(68,42)"/>
<path d="M0 0 C3.5786304 1.65167557 6.74820188 3.78286492 10 6 C9.34 6.66 8.68 7.32 8 8 C5.14169516 7.80944634 3.96573509 6.97144591 1.75 5.125 C0 3 0 3 0 0 Z " fill="#1E160B" transform="translate(42,42)"/>
<path d="M0 0 C0.66 0 1.32 0 2 0 C2 0.99 2 1.98 2 3 C1.01 3 0.02 3 -1 3 C-1 3.99 -1 4.98 -1 6 C-0.34 6 0.32 6 1 6 C1 5.34 1 4.68 1 4 C1.66 4 2.32 4 3 4 C2.67 5.32 2.34 6.64 2 8 C0.35 7.67 -1.3 7.34 -3 7 C-2.25 2.25 -2.25 2.25 0 0 Z " fill="#F4A412" transform="translate(53,115)"/>
<path d="M0 0 C2.37948772 0.17625835 3.70225849 0.69719773 5.37890625 2.40234375 C6.62115486 3.90649092 7.81376056 5.45129851 9 7 C8.01 7.33 7.02 7.66 6 8 C2.8125 5.75 2.8125 5.75 0 3 C0 2.01 0 1.02 0 0 Z " fill="#241A0B" transform="translate(39,50)"/>
<path d="M0 0 C2.75457718 0.37994168 3.82020574 0.8073633 5.75 2.875 C7 5 7 5 7 8 C6.01 8 5.02 8 4 8 C0 2.74285714 0 2.74285714 0 0 Z " fill="#22190B" transform="translate(60,27)"/>
<path d="M0 0 C2.64 0 5.28 0 8 0 C8.33 0.66 8.66 1.32 9 2 C7.68 2 6.36 2 5 2 C4.67 2.99 4.34 3.98 4 5 C2.64567325 3.68799596 1.31266518 2.35368596 0 1 C0 0.67 0 0.34 0 0 Z " fill="#17110A" transform="translate(91,99)"/>
<path d="M0 0 C0.99 0 1.98 0 3 0 C1.70700306 2.88437779 0.34058637 4.87219421 -2 7 C-2.66 6.67 -3.32 6.34 -4 6 C-2.84826645 3.53199953 -1.95216435 1.95216435 0 0 Z " fill="#15100A" transform="translate(87,27)"/>
<path d="M0 0 C0.99 0.33 1.98 0.66 3 1 C2.67 1.99 2.34 2.98 2 4 C2.99 4 3.98 4 5 4 C5.33 3.01 5.66 2.02 6 1 C5.67 2.65 5.34 4.3 5 6 C3.35 5.67 1.7 5.34 0 5 C0 3.35 0 1.7 0 0 Z " fill="#F3A412" transform="translate(39,106)"/>
<path d="M0 0 C1.6026782 -0.10824843 3.20745748 -0.18570645 4.8125 -0.25 C5.70582031 -0.29640625 6.59914063 -0.3428125 7.51953125 -0.390625 C10 0 10 0 11.82421875 2.015625 C12.40623047 2.99789062 12.40623047 2.99789062 13 4 C9.125 3.125 9.125 3.125 8 2 C6.65252916 1.76924918 5.29622435 1.58846937 3.9375 1.4375 C2.638125 1.293125 1.33875 1.14875 0 1 C0 0.67 0 0.34 0 0 Z " fill="#F9A912" transform="translate(90,97)"/>
<path d="M0 0 C0.66 0 1.32 0 2 0 C1.67 1.32 1.34 2.64 1 4 C-0.32 4.33 -1.64 4.66 -3 5 C-3.33 4.01 -3.66 3.02 -4 2 C-3.01 2 -2.02 2 -1 2 C-0.67 1.34 -0.34 0.68 0 0 Z " fill="#EA9E11" transform="translate(75,126)"/>
<path d="M0 0 C0.66 0 1.32 0 2 0 C2 3.3 2 6.6 2 10 C1.34 10 0.68 10 0 10 C-0.19412181 8.52168779 -0.38012131 7.04230684 -0.5625 5.5625 C-0.66691406 4.73878906 -0.77132812 3.91507813 -0.87890625 3.06640625 C-0.91886719 2.38449219 -0.95882812 1.70257813 -1 1 C-0.67 0.67 -0.34 0.34 0 0 Z " fill="#3F2C0B" transform="translate(80,53)"/>
<path d="M0 0 C0.33 1.32 0.66 2.64 1 4 C0.01 4 -0.98 4 -2 4 C-2 6.31 -2 8.62 -2 11 C-2.33 11 -2.66 11 -3 11 C-3.36923077 3.49230769 -3.36923077 3.49230769 -1.5 1 C-1.005 0.67 -0.51 0.34 0 0 Z " fill="#39290C" transform="translate(88,35)"/>
<path d="M0 0 C0.99 0.33 1.98 0.66 3 1 C2.34 2.32 1.68 3.64 1 5 C-0.32 4.34 -1.64 3.68 -3 3 C-2.01 2.01 -1.02 1.02 0 0 Z " fill="#3A280C" transform="translate(101,34)"/>
</svg>
